<svg xmlns="http://www.w3.org/2000/svg" viewBox="0 0 108.78 34.68" class="logo-dbc">
    <path d="M0 .99A.89.89 0 0 1 .99 0h22.64a3.17 3.17 0 0 1 2.42.99l5.77 5.77a3.16 3.16 0 0 1 .98 2.42v11.05c0 9.32-4.98 14.3-14.3 14.3H.99a.89.89 0 0 1-.99-.98ZM7 28.7h12.39c4.83 0 7.4-2.61 7.4-7.4V6.81a.89.89 0 0 0-.99-.99H7a.89.89 0 0 0-.99.99v20.91a.89.89 0 0 0 .99 1M38.43.98a.89.89 0 0 1 .99-.99h24.36a3.17 3.17 0 0 1 2.47.99l4.05 4.04a3.17 3.17 0 0 1 .99 2.42v4.24a3.17 3.17 0 0 1-.99 2.42l-2.32 2.32c-.3.3-.5.49-.5.74 0 .4.3.64.55.88l.7.65a7.29 7.29 0 0 1 2.56 5.67c0 6.56-4.1 10.16-10.7 10.16H39.42a.89.89 0 0 1-1-.99Zm7 13.66h18.85a.89.89 0 0 0 .99-.98V6.8a.89.89 0 0 0-1-.99H45.44a.89.89 0 0 0-.98.99v6.86a.89.89 0 0 0 .98.98m0 14.06h15.44c2.82 0 4.4-1.63 4.4-4.54v-.1c0-2.61-1.59-4.29-4.4-4.29H45.43a.89.89 0 0 0-.98.99v6.95a.89.89 0 0 0 .98.99m30.54-8.48v-11a3.16 3.16 0 0 1 .99-2.42L82.78.99A3.17 3.17 0 0 1 85.19 0h14.36a3.07 3.07 0 0 1 2.42.99l5.77 5.77a3.11 3.11 0 0 1 1.04 2.42v3.4a.89.89 0 0 1-1 .98h-4.04a.89.89 0 0 1-.98-.98V6.8a.89.89 0 0 0-1-.99h-18.8a.89.89 0 0 0-.98.99v14.35c0 4.64 2.57 7.7 7.55 7.7h6.22c4.88 0 7-2.36 7-6.46v-.44a.89.89 0 0 1 .99-.99h4.04a.89.89 0 0 1 .99.99V22c0 8.04-5.33 12.68-13.71 12.68h-4.78c-8.14 0-14.31-4.15-14.31-14.46" fill="#fff"></path>
</svg>
